<svg width="81" height="81" viewBox="0 0 81 81" fill="none" xmlns="http://www.w3.org/2000/svg">
<rect x="4.03607" y="4.03635" width="75.2816" height="75.2816" rx="9.85148" fill="#1F1F21" stroke="#1F1F21" stroke-width="1.31353"/>
<rect x="0.656765" y="0.656765" width="75.2816" height="75.2816" rx="9.85148" fill="#F8F6E9" stroke="#1F1F21" stroke-width="1.31353"/>
<path d="M44.1509 31.107C42.1121 31.107 40.2874 32.0982 39.1497 33.6189C38.012 32.0982 36.1873 31.107 34.1485 31.107C30.6904 31.107 27.8857 33.923 27.8857 37.4036C27.8857 38.744 28.0997 39.983 28.4714 41.1319C30.2512 46.7639 35.7367 50.1319 38.4513 51.0555C38.8343 51.1907 39.4651 51.1907 39.8481 51.0555C42.5627 50.1319 48.0482 46.7639 49.828 41.1319C50.1997 39.983 50.4137 38.744 50.4137 37.4036C50.4137 33.923 47.6089 31.107 44.1509 31.107Z" fill="#787885"/>
<rect x="5.01032" y="5.06168" width="75.2816" height="75.2816" rx="9.85148" fill="#1F1F21" stroke="#1F1F21" stroke-width="1.31353"/>
<rect x="1.63114" y="1.68207" width="75.2816" height="75.2816" rx="9.85148" fill="#FFB3EA" stroke="#1F1F21" stroke-width="1.31353"/>
<path d="M44.2731 29.2993C42.2344 29.2993 40.4096 30.2905 39.2719 31.8111C38.1343 30.2905 36.3095 29.2993 34.2707 29.2993C30.8127 29.2993 28.0079 32.1153 28.0079 35.5958C28.0079 36.9363 28.222 38.1753 28.5937 39.3242C30.3734 44.9562 35.8589 48.3241 38.5736 49.2478C38.9565 49.383 39.5873 49.383 39.9703 49.2478C42.6849 48.3241 48.1705 44.9562 49.9502 39.3242C50.3219 38.1753 50.5359 36.9363 50.5359 35.5958C50.5359 32.1153 47.7312 29.2993 44.2731 29.2993Z" fill="#EE05AD"/>
</svg>
