<svg width="241" height="389" viewBox="0 0 241 389" fill="none" xmlns="http://www.w3.org/2000/svg">
<path d="M3.34722 17.378C3.34722 9.99523 9.34163 4.01031 16.7361 4.01031H227.611C235.006 4.01031 241 9.99523 241 17.378V375.632C241 383.015 235.006 389 227.611 389H16.7361C9.34163 389 3.34722 383.015 3.34722 375.632V17.378Z" fill="#1F1F21"/>
<path d="M0 13.3677C0 5.98492 5.99441 0 13.3889 0H224.264C231.658 0 237.653 5.98492 237.653 13.3677V370.285C237.653 377.668 231.658 383.653 224.264 383.653H13.3889C5.99441 383.653 0 377.668 0 370.285V13.3677Z" fill="#B1D3A8"/>
<path d="M19.6977 366.874C20.967 366.874 22.1077 366.585 23.1842 365.975L22.7343 364.901C21.931 365.35 20.8867 365.687 19.8584 365.687C16.8539 365.687 14.4761 363.762 14.4761 360.233C14.4761 356.046 17.5769 353.335 20.7742 353.335C24.1321 353.335 25.7709 355.517 25.7709 358.34C25.7709 360.586 24.5499 361.933 23.4252 361.933C22.4773 361.933 22.1559 361.307 22.4773 359.992L23.2324 356.255H22.0274L21.8185 356.992H21.7703C21.4651 356.383 20.967 356.11 20.3565 356.11C18.2517 356.11 16.8218 358.372 16.8218 360.377C16.8218 362.029 17.7697 362.992 19.0711 362.992C19.8584 362.992 20.7099 362.462 21.2562 361.757H21.2883C21.449 362.671 22.2363 363.136 23.2324 363.136C24.9515 363.136 27.0081 361.484 27.0081 358.292C27.0081 354.65 24.6623 352.148 20.9188 352.148C16.7415 352.148 13.1586 355.372 13.1586 360.265C13.1586 364.628 16.1309 366.874 19.6977 366.874ZM19.4407 361.757C18.7498 361.757 18.2517 361.324 18.2517 360.281C18.2517 358.998 19.0711 357.361 20.3886 357.361C20.8545 357.361 21.1598 357.554 21.449 358.035L20.967 360.778C20.3886 361.484 19.9066 361.757 19.4407 361.757Z" fill="#1F1F21"/>
<path d="M29.5145 369.184H31.3621V366.328L31.2979 364.82C32.053 365.462 32.8403 365.815 33.6275 365.815C35.6198 365.815 37.4353 364.083 37.4353 361.051C37.4353 358.34 36.1821 356.559 33.9489 356.559C32.9527 356.559 31.9887 357.105 31.2175 357.746H31.1693L31.0247 356.784H29.5145V369.184ZM33.2741 364.291C32.7278 364.291 32.053 364.083 31.3621 363.489V359.174C32.1012 358.452 32.7599 358.099 33.4508 358.099C34.9289 358.099 35.5234 359.238 35.5234 361.083C35.5234 363.152 34.5594 364.291 33.2741 364.291Z" fill="#1F1F21"/>
<path d="M43.1693 365.815C45.3543 365.815 47.3305 364.131 47.3305 361.195C47.3305 358.26 45.3543 356.559 43.1693 356.559C40.9842 356.559 39.008 358.26 39.008 361.195C39.008 364.131 40.9842 365.815 43.1693 365.815ZM43.1693 364.307C41.7875 364.307 40.9199 363.072 40.9199 361.195C40.9199 359.334 41.7875 358.083 43.1693 358.083C44.5671 358.083 45.4347 359.334 45.4347 361.195C45.4347 363.072 44.5671 364.307 43.1693 364.307Z" fill="#1F1F21"/>
<path d="M49.5037 365.607H51.3513V356.784H49.5037V365.607ZM50.4195 355.132C51.0943 355.132 51.5763 354.699 51.5763 354.025C51.5763 353.367 51.0943 352.934 50.4195 352.934C49.7447 352.934 49.2787 353.367 49.2787 354.025C49.2787 354.699 49.7447 355.132 50.4195 355.132Z" fill="#1F1F21"/>
<path d="M56.5105 365.815C58.6956 365.815 59.8684 364.612 59.8684 363.136C59.8684 361.468 58.5028 360.923 57.2656 360.457C56.3016 360.104 55.434 359.816 55.434 359.062C55.434 358.452 55.8839 357.971 56.864 357.971C57.587 357.971 58.2136 358.292 58.8241 358.741L59.6917 357.602C58.9848 357.041 58.0047 356.559 56.8318 356.559C54.8717 356.559 53.6828 357.666 53.6828 359.142C53.6828 360.634 54.9842 361.259 56.1731 361.709C57.121 362.078 58.1172 362.43 58.1172 363.232C58.1172 363.906 57.6191 364.419 56.5587 364.419C55.6108 364.419 54.8396 364.018 54.0523 363.409L53.1847 364.596C54.0523 365.302 55.2894 365.815 56.5105 365.815Z" fill="#1F1F21"/>
<path d="M61.8361 365.607H63.6838V359.35C64.455 358.564 65.0173 358.147 65.8367 358.147C66.881 358.147 67.3309 358.757 67.3309 360.281V365.607H69.1786V360.056C69.1786 357.81 68.3431 356.559 66.4633 356.559C65.2583 356.559 64.3746 357.217 63.6034 357.955L63.6838 356.206V352.822H61.8361V365.607Z" fill="#1F1F21"/>
<path d="M73.9037 365.815C74.9641 365.815 75.912 365.286 76.7153 364.596H76.7796L76.9242 365.607H78.4345V360.297C78.4345 357.955 77.4223 356.559 75.2211 356.559C73.8073 356.559 72.5701 357.137 71.6543 357.714L72.3452 358.965C73.1003 358.484 73.9679 358.067 74.8998 358.067C76.2012 358.067 76.5707 358.965 76.5868 359.992C72.9075 360.393 71.3009 361.372 71.3009 363.265C71.3009 364.821 72.3773 365.815 73.9037 365.815ZM74.466 364.355C73.6787 364.355 73.0843 364.002 73.0843 363.136C73.0843 362.142 73.9679 361.468 76.5868 361.163V363.329C75.8638 363.986 75.2372 364.355 74.466 364.355Z" fill="#1F1F21"/>
<path d="M84.1091 365.815C85.1053 365.815 86.0211 365.286 86.6798 364.612H86.7441L86.8887 365.607H88.3989V352.822H86.5513V356.094L86.6316 357.554C85.9086 356.944 85.2659 356.559 84.2537 356.559C82.2775 356.559 80.462 358.34 80.462 361.195C80.462 364.131 81.8919 365.815 84.1091 365.815ZM84.5429 364.291C83.1612 364.291 82.3739 363.184 82.3739 361.179C82.3739 359.27 83.3701 358.099 84.6072 358.099C85.2659 358.099 85.8925 358.308 86.5513 358.901V363.216C85.9086 363.954 85.282 364.291 84.5429 364.291Z" fill="#1F1F21"/>
<path d="M91.1766 365.607H93.0243V360.104C93.5705 358.709 94.4381 358.212 95.1611 358.212C95.5146 358.212 95.7395 358.26 96.0448 358.356L96.3822 356.752C96.109 356.623 95.8199 356.559 95.3861 356.559C94.4381 356.559 93.5062 357.233 92.8796 358.372H92.8314L92.6868 356.784H91.1766V365.607Z" fill="#1F1F21"/>
<path d="M101.257 365.815C102.414 365.815 103.426 365.43 104.246 364.885L103.603 363.714C102.96 364.131 102.286 364.371 101.498 364.371C99.9721 364.371 98.9117 363.361 98.7671 361.676H104.503C104.551 361.452 104.599 361.099 104.599 360.73C104.599 358.244 103.33 356.559 100.984 356.559C98.9277 356.559 96.9515 358.34 96.9515 361.195C96.9515 364.115 98.8635 365.815 101.257 365.815ZM98.751 360.393C98.9277 358.853 99.9078 358.003 101.016 358.003C102.302 358.003 102.993 358.885 102.993 360.393H98.751Z" fill="#1F1F21"/>
<path d="M108.516 365.815C109.576 365.815 110.524 365.286 111.328 364.596H111.392L111.537 365.607H113.047V360.297C113.047 357.955 112.035 356.559 109.833 356.559C108.42 356.559 107.183 357.137 106.267 357.714L106.958 358.965C107.713 358.484 108.58 358.067 109.512 358.067C110.814 358.067 111.183 358.965 111.199 359.992C107.52 360.393 105.913 361.372 105.913 363.265C105.913 364.821 106.99 365.815 108.516 365.815ZM109.078 364.355C108.291 364.355 107.697 364.002 107.697 363.136C107.697 362.142 108.58 361.468 111.199 361.163V363.329C110.476 363.986 109.85 364.355 109.078 364.355Z" fill="#1F1F21"/>
<path d="M115.669 365.607H117.517V359.35C118.24 358.548 118.898 358.147 119.493 358.147C120.505 358.147 120.971 358.757 120.971 360.281V365.607H122.819V359.35C123.558 358.548 124.2 358.147 124.811 358.147C125.807 358.147 126.289 358.757 126.289 360.281V365.607H128.137V360.056C128.137 357.81 127.269 356.559 125.421 356.559C124.313 356.559 123.413 357.249 122.545 358.179C122.16 357.169 121.421 356.559 120.103 356.559C119.011 356.559 118.127 357.217 117.372 358.019H117.324L117.179 356.784H115.669V365.607Z" fill="#1F1F21"/>
<path d="M13.3692 23.3935C13.3801 16.0107 19.3833 10.0349 26.7778 10.0462L215.788 10.334C223.183 10.3453 229.168 16.3393 229.157 23.7221L228.72 320.156C228.71 327.539 222.706 333.515 215.312 333.504L26.3016 333.216C18.9071 333.205 12.9215 327.211 12.9324 319.828L13.3692 23.3935Z"/>
<path d="M39.9002 184.641C40.239 184.965 40.5924 185.318 40.7839 185.553C41.1079 185.377 41.4319 185.156 41.7559 184.935C41.9621 185.171 42.183 185.391 42.4187 185.597C41.6528 185.877 40.7986 186.082 39.8708 186.215C39.9002 186.038 39.9002 185.847 39.9002 185.641V184.641ZM40.8723 181.906H42.2272C41.6528 182.671 40.8281 183.347 39.9002 183.847V177.921C40.2684 178.186 40.6366 178.48 40.8723 178.701V181.906ZM42.7869 180.201H45.7619V180.642H42.7869V180.201ZM42.7869 178.583H45.7619V179.024H42.7869V178.583ZM45.0697 183.965C44.8046 184.259 44.4806 184.509 44.1418 184.744C43.7295 184.509 43.376 184.259 43.0667 183.965H45.0697ZM37.1167 181.083C37.1314 180.642 37.1314 180.215 37.1314 179.818V179.642H37.9709V181.083H37.1167ZM37.9709 176.333V177.716H37.1314V176.333H37.9709ZM46.6456 182.377L46.2921 182.45H44.1713C44.2891 182.274 44.4069 182.097 44.51 181.906H47.7796V177.319H42.1683C42.2861 177.157 42.404 176.995 42.5218 176.819H48.2803V175.025H43.5085C43.5969 174.819 43.6853 174.628 43.7589 174.422L41.6676 173.863C41.2846 174.907 40.6513 175.966 39.9002 176.76V174.407H35.2757V179.833C35.2757 181.995 35.2315 184.98 34.4215 186.994C34.8928 187.171 35.7323 187.626 36.1005 187.935C36.6454 186.612 36.9105 184.803 37.0283 183.053H37.9709V185.612C37.9709 185.774 37.9267 185.832 37.7794 185.832C37.6174 185.832 37.1903 185.847 36.8221 185.818C37.0725 186.347 37.3081 187.288 37.3376 187.832C38.2065 187.832 38.8104 187.773 39.2964 187.435C39.5909 187.229 39.753 186.935 39.8266 186.553C40.1064 186.965 40.4157 187.509 40.563 187.906C41.8885 187.656 43.1109 187.303 44.1713 186.803C45.1139 187.288 46.189 187.656 47.3967 187.876C47.6765 187.332 48.2362 186.509 48.678 186.082C47.7501 185.979 46.8812 185.803 46.0859 185.568C46.8665 184.877 47.4998 184.009 47.9416 182.936L46.6456 182.377Z" fill="white"/>
<path d="M53.5529 175.348C53.008 174.863 51.9034 174.304 51.0786 173.966L49.8857 175.525C50.7251 175.922 51.7855 176.569 52.2716 177.054L53.5529 175.348ZM52.8165 179.26C52.2716 178.789 51.1964 178.245 50.3717 177.936L49.1935 179.509C50.0182 179.877 51.0786 180.509 51.5499 180.98L52.8165 179.26ZM51.0492 181.612C50.4895 183.421 49.7384 185.318 49.1935 186.509L51.1375 187.568C51.7266 186.038 52.2863 184.347 52.7723 182.7L51.0492 181.612ZM57.1906 183.347H56.5868V182.142H57.1906V183.347ZM60.3866 175.054C60.8137 175.319 61.2702 175.657 61.6384 175.966H60.4013L60.3866 175.054ZM61.2702 178.598C61.1082 179.348 60.9168 180.068 60.6959 180.745C60.6075 179.862 60.5338 178.877 60.4749 177.833H63.0228V175.966H62.4779L63.229 175.23C62.8314 174.804 62.0214 174.26 61.3733 173.936L60.3866 174.863L60.3718 174.084H58.4278C58.4425 174.731 58.4572 175.363 58.472 175.966H53.1258V180.186C53.1258 182.156 53.0521 184.891 52.0212 186.759C52.463 186.95 53.2878 187.509 53.6265 187.832C54.79 185.759 54.9815 182.421 54.9815 180.186V177.833H58.5456C58.6634 180.201 58.8696 182.244 59.1642 183.833C58.9874 184.112 58.7812 184.362 58.5751 184.612V180.627H55.2318V185.597H56.5868V184.877H58.3394C57.7945 185.479 57.1759 185.994 56.4837 186.421C56.8814 186.744 57.603 187.435 57.8829 187.788C58.5751 187.288 59.2083 186.7 59.768 186.038C60.2393 187.185 60.8284 187.803 61.6237 187.818C62.2423 187.818 63.0965 187.259 63.4941 184.406C63.1848 184.244 62.3306 183.7 62.0066 183.289C61.9477 184.597 61.8299 185.288 61.6532 185.274C61.4911 185.274 61.3144 184.832 61.1524 184.068C62.0066 182.597 62.6399 180.877 63.0965 178.936L61.2702 178.598ZM58.3247 178.465H55.3939V179.995H58.3247V178.465Z" fill="white"/>
<path d="M65.556 180.054L66.4691 182.362C67.9125 181.745 70.6813 180.598 72.3308 180.598C73.4943 180.598 74.2307 181.274 74.2307 182.289C74.2307 184.068 71.9184 184.95 68.4574 185.038L69.4147 187.229C74.4811 186.921 76.6166 184.891 76.6166 182.333C76.6166 179.98 75.026 178.524 72.5517 178.524C70.7402 178.524 68.207 179.348 67.2203 179.642C66.7932 179.774 65.9979 179.98 65.556 180.054Z" fill="white"/>
<path d="M87.2059 182.847L85.0851 182.642C84.9672 183.2 84.8052 183.994 84.8052 184.744C84.8052 186.244 86.1749 187.171 88.7523 187.171C89.9894 187.171 90.9909 187.068 91.8304 186.965L91.9187 184.7C90.7847 184.891 89.7685 185.009 88.767 185.009C87.471 185.009 87.0144 184.627 87.0144 184.009C87.0144 183.715 87.1028 183.23 87.2059 182.847ZM85.5563 174.642L82.8317 174.436C82.8759 174.804 82.8612 175.466 82.7875 176.083C82.7728 176.26 82.7433 176.451 82.7139 176.672C82.3015 176.686 81.9186 176.701 81.5209 176.701C80.8876 176.701 80.4164 176.672 79.621 176.583L79.68 178.804C80.1807 178.833 80.7551 178.862 81.5062 178.862C81.7418 178.862 81.9922 178.862 82.2573 178.848C82.1837 179.201 82.0806 179.554 81.9922 179.892C81.4326 181.936 80.2691 185.068 79.4001 186.524L81.8744 187.362C82.7139 185.538 83.7006 182.553 84.2308 180.509C84.3781 179.921 84.5254 179.289 84.6727 178.657C85.63 178.554 86.5726 178.392 87.412 178.186V175.966C86.6609 176.142 85.9098 176.289 85.1587 176.407C85.1882 176.319 85.2029 176.23 85.2176 176.157C85.2912 175.819 85.4385 175.098 85.5563 174.642ZM86.1307 179.083V181.156C87.0733 181.039 87.9864 180.995 89.0468 180.995C89.96 180.995 90.8731 181.098 91.6095 181.186L91.6536 179.054C90.7553 178.965 89.8716 178.921 89.0468 178.921C88.0895 178.921 86.9849 178.995 86.1307 179.083Z" fill="white"/>
<path d="M95.8952 182.803C94.5403 182.803 93.4357 183.906 93.4357 185.259C93.4357 186.612 94.5403 187.715 95.8952 187.715C97.2649 187.715 98.3548 186.612 98.3548 185.259C98.3548 183.906 97.2649 182.803 95.8952 182.803ZM95.8952 186.479C95.2325 186.479 94.6728 185.935 94.6728 185.259C94.6728 184.583 95.2325 184.038 95.8952 184.038C96.5727 184.038 97.1177 184.583 97.1177 185.259C97.1177 185.935 96.5727 186.479 95.8952 186.479Z" fill="white"/>
<path d="M121.345 181.48V179.274H116.146V176.995H121.743V174.789H108.546V176.995H113.848V179.274H109.003V181.48H113.539C112.994 183.274 111.58 185.053 108.075 185.979C108.517 186.421 109.165 187.362 109.401 187.906C112.655 186.979 114.364 185.362 115.248 183.568C116.396 185.715 118.061 187.141 120.8 187.891C121.124 187.259 121.787 186.274 122.287 185.788C119.342 185.171 117.633 183.671 116.661 181.48H121.345Z" fill="white"/>
<path d="M136.514 177.142V174.98H123.245V177.142H128.399V187.832H130.712V181.23C132.096 182.053 133.628 183.053 134.394 183.788L135.999 181.818C134.894 180.892 132.597 179.642 131.08 178.877L130.712 179.304V177.142H136.514Z" fill="white"/>
<path d="M137.752 179.583V181.921H151.478V179.583H137.752Z" fill="white"/>
<path d="M161.699 178.024H156.912V176.51H161.699V178.024ZM163.893 174.466H154.851V180.054H163.893V174.466ZM156.603 183.141V185.127H154.909V183.141H156.603ZM152.892 187.876H154.909V187.171H156.603V187.818H158.739V181.098H152.892V187.876ZM161.832 185.127V183.141H163.628V185.127H161.832ZM159.784 181.098V187.876H161.832V187.171H163.628V187.818H165.779V181.098H159.784Z" fill="white"/>
<path d="M175.573 182.847L173.452 182.642C173.334 183.2 173.172 183.994 173.172 184.744C173.172 186.244 174.542 187.171 177.119 187.171C178.356 187.171 179.358 187.068 180.197 186.965L180.285 184.7C179.151 184.891 178.135 185.009 177.134 185.009C175.838 185.009 175.381 184.627 175.381 184.009C175.381 183.715 175.469 183.23 175.573 182.847ZM173.923 174.642L171.198 174.436C171.243 174.804 171.228 175.466 171.154 176.083C171.139 176.26 171.11 176.451 171.081 176.672C170.668 176.686 170.285 176.701 169.888 176.701C169.254 176.701 168.783 176.672 167.988 176.583L168.047 178.804C168.547 178.833 169.122 178.862 169.873 178.862C170.109 178.862 170.359 178.862 170.624 178.848C170.55 179.201 170.447 179.554 170.359 179.892C169.799 181.936 168.636 185.068 167.767 186.524L170.241 187.362C171.081 185.538 172.067 182.553 172.598 180.509C172.745 179.921 172.892 179.289 173.039 178.657C173.997 178.554 174.939 178.392 175.779 178.186V175.966C175.028 176.142 174.276 176.289 173.525 176.407C173.555 176.319 173.57 176.23 173.584 176.157C173.658 175.819 173.805 175.098 173.923 174.642ZM174.497 179.083V181.156C175.44 181.039 176.353 180.995 177.413 180.995C178.327 180.995 179.24 181.098 179.976 181.186L180.02 179.054C179.122 178.965 178.238 178.921 177.413 178.921C176.456 178.921 175.352 178.995 174.497 179.083Z" fill="white"/>
<path d="M181.714 182.156L183.864 184.391C184.144 183.95 184.483 183.303 184.836 182.774C185.411 181.98 186.383 180.627 186.913 179.965C187.296 179.465 187.59 179.407 188.032 179.921C188.739 180.701 189.829 182.083 190.713 183.156C191.611 184.23 192.775 185.671 193.791 186.641L195.676 184.524C194.233 183.215 193.084 182.024 192.112 180.965C191.287 180.068 190.094 178.524 189.019 177.495C187.885 176.422 186.825 176.495 185.705 177.76C184.763 178.833 183.688 180.259 183.054 180.906C182.583 181.421 182.2 181.774 181.714 182.156ZM192.009 176.23L190.477 176.863C191.051 177.671 191.346 178.26 191.817 179.274L193.393 178.598C193.069 177.936 192.451 176.892 192.009 176.23ZM194.026 175.392L192.509 176.083C193.084 176.863 193.408 177.407 193.923 178.421L195.455 177.686C195.131 177.039 194.483 176.025 194.026 175.392Z" fill="white"/>
<path d="M205.028 182.847L202.907 182.642C202.789 183.2 202.627 183.994 202.627 184.744C202.627 186.244 203.997 187.171 206.574 187.171C207.812 187.171 208.813 187.068 209.653 186.965L209.741 184.7C208.607 184.891 207.591 185.009 206.589 185.009C205.293 185.009 204.837 184.627 204.837 184.009C204.837 183.715 204.925 183.23 205.028 182.847ZM203.379 174.642L200.654 174.436C200.698 174.804 200.683 175.466 200.61 176.083C200.595 176.26 200.566 176.451 200.536 176.672C200.124 176.686 199.741 176.701 199.343 176.701C198.71 176.701 198.239 176.672 197.443 176.583L197.502 178.804C198.003 178.833 198.577 178.862 199.328 178.862C199.564 178.862 199.814 178.862 200.08 178.848C200.006 179.201 199.903 179.554 199.814 179.892C199.255 181.936 198.091 185.068 197.222 186.524L199.697 187.362C200.536 185.538 201.523 182.553 202.053 180.509C202.2 179.921 202.348 179.289 202.495 178.657C203.452 178.554 204.395 178.392 205.234 178.186V175.966C204.483 176.142 203.732 176.289 202.981 176.407C203.01 176.319 203.025 176.23 203.04 176.157C203.113 175.819 203.261 175.098 203.379 174.642ZM203.953 179.083V181.156C204.896 181.039 205.809 180.995 206.869 180.995C207.782 180.995 208.695 181.098 209.432 181.186L209.476 179.054C208.577 178.965 207.694 178.921 206.869 178.921C205.912 178.921 204.807 178.995 203.953 179.083Z" fill="white"/>
<path d="M38.2654 197.89L35.5261 197.861C35.6292 198.375 35.6586 199.008 35.6586 199.449C35.6586 200.375 35.6734 202.066 35.8206 203.463C36.233 207.477 37.6763 208.963 39.4289 208.963C40.7103 208.963 41.6528 208.051 42.6838 205.448L40.887 203.242C40.6661 204.242 40.1506 206.08 39.4731 206.08C38.6189 206.08 38.3244 204.728 38.1476 202.801C38.0593 201.816 38.0593 200.86 38.0593 199.89C38.0593 199.463 38.1476 198.508 38.2654 197.89ZM45.4673 198.169L43.1845 198.905C44.9077 200.787 45.6293 204.654 45.8355 206.874L48.2067 205.963C48.0741 203.845 46.9107 199.86 45.4673 198.169Z" fill="white"/>
</svg>
