<svg width="342" height="58" viewBox="0 0 342 58" fill="none" xmlns="http://www.w3.org/2000/svg">
<path d="M290.133 31.735C293.71 31.735 296.857 32.0305 299.071 32.8146C300.17 33.2037 300.951 33.6833 301.448 34.2261C301.92 34.7409 302.183 35.3605 302.183 36.1791C302.183 36.9957 301.919 37.6113 301.446 38.1222C300.947 38.6619 300.163 39.1376 299.061 39.5225C296.841 40.298 293.692 40.5833 290.133 40.5833C286.558 40.5833 283.411 40.2878 281.196 39.5037C280.098 39.1147 279.317 38.635 278.819 38.0921C278.347 37.5773 278.083 36.9577 278.083 36.1392C278.083 35.3227 278.348 34.707 278.82 34.1961C279.32 33.6564 280.104 33.1807 281.206 32.7958C283.426 32.0204 286.575 31.735 290.133 31.735ZM290.133 9.83334C294.33 9.83334 297.685 13.1878 297.685 17.3797C297.685 21.5719 294.33 24.9277 290.133 24.9277C285.939 24.9277 282.582 21.5717 282.582 17.3797C282.582 13.188 285.938 9.83334 290.133 9.83334Z" fill="#BFA1FF" stroke="black" stroke-width="2.5"/>
<circle cx="147.693" cy="20.7917" r="2.07988" fill="#1F1F21"/>
<path d="M138.148 36.4379L138.233 17.9297C138.245 15.1683 140.494 12.9399 143.255 12.9525L180.778 13.1235C183.54 13.1361 185.768 15.3848 185.756 18.1462L185.671 36.6544C185.659 39.4158 183.41 41.6442 180.648 41.6316L143.126 41.4606C140.364 41.4481 138.136 39.1993 138.148 36.4379Z" stroke="black" stroke-width="2.5"/>
<circle cx="161.836" cy="27.3828" r="7.48548" stroke="black" stroke-width="2.5"/>
<path d="M149.773 12.8237L154.66 8.32228C155.583 7.472 156.792 7 158.048 7H164.793C166.048 7 167.257 7.472 168.18 8.32227L173.068 12.8237" stroke="black" stroke-width="2.5"/>
<path d="M25.1522 37V14.8261C25.1522 12.0647 27.3908 9.82609 30.1522 9.82609H41.8696C44.631 9.82609 46.8696 12.0647 46.8696 14.8261V37C46.8696 39.7614 44.631 42 41.8696 42H30.1522C27.3908 42 25.1522 39.7614 25.1522 37Z" stroke="black" stroke-width="2.5"/>
<path d="M30.7827 32.1739V10C30.7827 7.23858 33.0213 5 35.7827 5H47.5001C50.2615 5 52.5001 7.23858 52.5001 10V32.1739C52.5001 34.9353 50.2615 37.1739 47.5001 37.1739H35.7827C33.0213 37.1739 30.7827 34.9353 30.7827 32.1739Z" stroke="black" stroke-width="2.5"/>
<path d="M246 12C246 5.64873 251.149 0.5 257.5 0.5H329.5C335.851 0.5 341 5.64873 341 12V36C341 42.3513 335.851 47.5 329.5 47.5H257.5C251.149 47.5 246 42.3513 246 36V12Z" fill="black" stroke="black"/>
<path d="M294.133 28.735C297.71 28.735 300.857 29.0305 303.071 29.8146C304.17 30.2037 304.951 30.6833 305.448 31.2261C305.92 31.7409 306.183 32.3605 306.183 33.1791C306.183 33.9957 305.919 34.6113 305.446 35.1222C304.947 35.6619 304.163 36.1376 303.061 36.5225C300.841 37.298 297.692 37.5833 294.133 37.5833C290.558 37.5833 287.411 37.2878 285.196 36.5037C284.098 36.1147 283.317 35.635 282.819 35.0921C282.347 34.5773 282.083 33.9577 282.083 33.1392C282.083 32.3227 282.348 31.707 282.82 31.1961C283.32 30.6564 284.104 30.1807 285.206 29.7958C287.426 29.0204 290.575 28.735 294.133 28.735ZM294.133 6.83334C298.33 6.83334 301.685 10.1878 301.685 14.3797C301.685 18.5719 298.33 21.9277 294.133 21.9277C289.939 21.9277 286.582 18.5717 286.582 14.3797C286.582 10.188 289.938 6.83334 294.133 6.83334Z" stroke="#BFA1FF" stroke-width="2.5"/>
</svg>
