<svg width="221" height="198" viewBox="0 0 221 198" fill="none" xmlns="http://www.w3.org/2000/svg">
<path d="M78.4638 73.5719C77.8607 73.8046 76.8673 73.8046 76.2641 73.5719C71.1198 71.6519 59.6247 63.6426 59.6247 50.0675C59.6247 44.0751 64.0418 39.2268 69.4878 39.2268C72.7163 39.2268 75.5723 40.9334 77.364 43.5708C79.1556 40.9334 82.0294 39.2268 85.2402 39.2268C90.6861 39.2268 95.1032 44.0751 95.1032 50.0675C95.1032 63.6426 83.6082 71.6519 78.4638 73.5719Z" fill="#C0E800"/>
<path d="M104.784 138.641C104.017 138.937 102.752 138.937 101.985 138.641C95.4373 136.197 80.8072 126.004 80.8072 108.726C80.8072 101.099 86.429 94.9289 93.3602 94.9289C97.4692 94.9289 101.104 97.1009 103.384 100.458C105.665 97.1009 109.322 94.9289 113.409 94.9289C120.34 94.9289 125.962 101.099 125.962 108.726C125.962 126.004 111.332 136.197 104.784 138.641Z" fill="#C0E800"/>
<path d="M189.663 81.2665C188.539 81.7002 186.687 81.7002 185.563 81.2665C175.976 77.6885 154.554 62.762 154.554 37.4629C154.554 26.2952 162.785 17.2598 172.935 17.2598C178.952 17.2598 184.274 20.4403 187.613 25.3555C190.952 20.4403 196.308 17.2598 202.292 17.2598C212.441 17.2598 220.673 26.2952 220.673 37.4629C220.673 62.762 199.25 77.6885 189.663 81.2665Z" fill="#C0E800"/>
<path d="M38.4297 172.563C37.5762 172.892 36.1703 172.892 35.3167 172.563C28.0362 169.846 11.7681 158.511 11.7681 139.299C11.7681 130.818 18.0192 123.957 25.7265 123.957C30.2957 123.957 34.3376 126.372 36.8732 130.105C39.4088 126.372 43.4759 123.957 48.0199 123.957C55.7272 123.957 61.9784 130.818 61.9784 139.299C61.9784 158.511 45.7102 169.846 38.4297 172.563Z" fill="#C0E800"/>
<path d="M125.17 28.512C124.78 28.6626 124.136 28.6626 123.746 28.512C120.415 27.269 112.973 22.0836 112.973 13.2948C112.973 9.41516 115.833 6.2763 119.359 6.2763C121.449 6.2763 123.298 7.38118 124.458 9.08872C125.618 7.38118 127.478 6.2763 129.557 6.2763C133.083 6.2763 135.943 9.41516 135.943 13.2948C135.943 22.0836 128.501 27.269 125.17 28.512Z" fill="#C0E800"/>
<path d="M12.1968 49.6945C11.8063 49.8451 11.1632 49.8451 10.7727 49.6945C7.44211 48.4515 0 43.2661 0 34.4773C0 30.5977 2.8597 27.4588 6.38551 27.4588C8.47574 27.4588 10.3248 28.5637 11.4847 30.2712C12.6447 28.5637 14.5052 27.4588 16.584 27.4588C20.1098 27.4588 22.9695 30.5977 22.9695 34.4773C22.9695 43.2661 15.5274 48.4515 12.1968 49.6945Z" fill="#C0E800"/>
<path d="M62.4071 22.2357C62.0166 22.3863 61.3735 22.3863 60.983 22.2357C57.6524 20.9927 50.2103 15.8073 50.2103 7.01849C50.2103 3.13886 53.07 0 56.5958 0C58.6861 0 60.5351 1.10488 61.6951 2.81242C62.855 1.10488 64.7155 0 66.7943 0C70.3201 0 73.1798 3.13886 73.1798 7.01849C73.1798 15.8073 65.7377 20.9927 62.4071 22.2357Z" fill="#C0E800"/>
<path d="M34.7375 94.8615C34.5045 94.9514 34.1207 94.9514 33.8877 94.8615C31.9001 94.1197 27.4588 91.0252 27.4588 85.7802C27.4588 83.465 29.1654 81.5918 31.2695 81.5918C32.5169 81.5918 33.6204 82.2511 34.3126 83.2702C35.0048 82.2511 36.1151 81.5918 37.3557 81.5918C39.4598 81.5918 41.1664 83.465 41.1664 85.7802C41.1664 91.0252 36.7251 94.1197 34.7375 94.8615Z" fill="#C0E800"/>
<path d="M110.837 170.177C110.604 170.267 110.221 170.267 109.988 170.177C108 169.435 103.559 166.341 103.559 161.096C103.559 158.78 105.265 156.907 107.369 156.907C108.617 156.907 109.72 157.567 110.413 158.586C111.105 157.567 112.215 156.907 113.456 156.907C115.56 156.907 117.266 158.78 117.266 161.096C117.266 166.341 112.825 169.435 110.837 170.177Z" fill="#C0E800"/>
<path d="M132.02 73.679C131.787 73.7689 131.403 73.7689 131.17 73.679C129.183 72.9372 124.741 69.8427 124.741 64.5977C124.741 62.2825 126.448 60.4093 128.552 60.4093C129.799 60.4093 130.903 61.0687 131.595 62.0877C132.287 61.0687 133.398 60.4093 134.638 60.4093C136.742 60.4093 138.449 62.2825 138.449 64.5977C138.449 69.8427 134.008 72.9372 132.02 73.679Z" fill="#C0E800"/>
<path d="M161.832 108.199C161.599 108.288 161.216 108.288 160.982 108.199C158.995 107.457 154.554 104.362 154.554 99.1173C154.554 96.8021 156.26 94.9289 158.364 94.9289C159.612 94.9289 160.715 95.5882 161.407 96.6073C162.1 95.5882 163.21 94.9289 164.45 94.9289C166.555 94.9289 168.261 96.8021 168.261 99.1173C168.261 104.362 163.82 107.457 161.832 108.199Z" fill="#C0E800"/>
<path d="M154.771 152.133C154.538 152.222 154.155 152.222 153.922 152.133C151.934 151.391 147.493 148.296 147.493 143.051C147.493 140.736 149.199 138.863 151.303 138.863C152.551 138.863 153.654 139.522 154.347 140.541C155.039 139.522 156.149 138.863 157.39 138.863C159.494 138.863 161.2 140.736 161.2 143.051C161.2 148.296 156.759 151.391 154.771 152.133Z" fill="#C0E800"/>
</svg>
