<svg width="328" height="58" viewBox="0 0 328 58" fill="none" xmlns="http://www.w3.org/2000/svg">
<path d="M290.133 31.735C293.709 31.735 296.857 32.0305 299.071 32.8146C300.169 33.2037 300.95 33.6833 301.448 34.2261C301.92 34.7409 302.183 35.3605 302.183 36.1791C302.183 36.9957 301.919 37.6113 301.446 38.1222C300.947 38.6619 300.163 39.1376 299.061 39.5225C296.841 40.298 293.692 40.5833 290.133 40.5833C286.558 40.5833 283.41 40.2878 281.196 39.5037C280.098 39.1147 279.316 38.635 278.819 38.0921C278.347 37.5773 278.083 36.9577 278.083 36.1392C278.083 35.3227 278.348 34.707 278.82 34.1961C279.32 33.6564 280.104 33.1807 281.206 32.7958C283.426 32.0204 286.575 31.735 290.133 31.735ZM290.133 9.83334C294.33 9.83334 297.685 13.1878 297.685 17.3797C297.685 21.5719 294.33 24.9277 290.133 24.9277C285.939 24.9277 282.582 21.5717 282.582 17.3797C282.582 13.188 285.938 9.83334 290.133 9.83334Z" fill="#BFA1FF" stroke="black" stroke-width="2.5"/>
<circle cx="147.693" cy="20.7917" r="2.07988" fill="#1F1F21"/>
<path d="M138.148 36.4379L138.233 17.9297C138.245 15.1683 140.494 12.9399 143.255 12.9525L180.778 13.1235C183.54 13.1361 185.768 15.3848 185.756 18.1462L185.671 36.6544C185.659 39.4158 183.41 41.6442 180.648 41.6316L143.126 41.4606C140.364 41.4481 138.136 39.1993 138.148 36.4379Z" stroke="black" stroke-width="2.5"/>
<circle cx="161.836" cy="27.3828" r="7.48548" stroke="black" stroke-width="2.5"/>
<path d="M149.773 12.8237L154.66 8.32228C155.583 7.472 156.792 7 158.047 7H164.793C166.048 7 167.257 7.472 168.18 8.32227L173.067 12.8237" stroke="black" stroke-width="2.5"/>
<path d="M25.1522 37V14.8261C25.1522 12.0647 27.3908 9.82609 30.1522 9.82609H41.8696C44.631 9.82609 46.8696 12.0647 46.8696 14.8261V37C46.8696 39.7614 44.631 42 41.8696 42H30.1522C27.3908 42 25.1522 39.7614 25.1522 37Z" stroke="black" stroke-width="2.5"/>
<path d="M30.7827 32.1739V10C30.7827 7.23858 33.0213 5 35.7827 5H47.5001C50.2615 5 52.5001 7.23858 52.5001 10V32.1739C52.5001 34.9353 50.2615 37.1739 47.5001 37.1739H35.7827C33.0213 37.1739 30.7827 34.9353 30.7827 32.1739Z" stroke="black" stroke-width="2.5"/>
<path d="M116 12C116 5.64873 121.149 0.5 127.5 0.5H199.5C205.851 0.5 211 5.64873 211 12V36C211 42.3513 205.851 47.5 199.5 47.5H127.5C121.149 47.5 116 42.3513 116 36V12Z" fill="black" stroke="black"/>
<circle cx="148.693" cy="19.7917" r="2.07988" fill="#BFA1FF"/>
<path d="M139.148 35.4379L139.233 16.9297C139.245 14.1683 141.494 11.9399 144.255 11.9525L181.778 12.1235C184.54 12.1361 186.768 14.3848 186.756 17.1462L186.671 35.6544C186.659 38.4158 184.41 40.6442 181.648 40.6316L144.126 40.4606C141.364 40.4481 139.136 38.1993 139.148 35.4379Z" stroke="#BFA1FF" stroke-width="2.5"/>
<circle cx="162.836" cy="26.3828" r="7.48548" stroke="#BFA1FF" stroke-width="2.5"/>
<path d="M150.773 11.8237L155.66 7.32228C156.583 6.472 157.792 6 159.047 6H165.793C167.048 6 168.257 6.472 169.18 7.32227L174.067 11.8237" stroke="#BFA1FF" stroke-width="2.5"/>
</svg>
