<svg width="334" height="59" viewBox="0 0 334 59" fill="none" xmlns="http://www.w3.org/2000/svg">
<path d="M296.133 32.735C299.71 32.735 302.857 33.0305 305.071 33.8146C306.17 34.2037 306.951 34.6833 307.448 35.2261C307.92 35.7409 308.183 36.3605 308.183 37.1791C308.183 37.9957 307.919 38.6113 307.446 39.1222C306.947 39.6619 306.163 40.1376 305.061 40.5225C302.841 41.298 299.692 41.5833 296.133 41.5833C292.558 41.5833 289.411 41.2878 287.196 40.5037C286.098 40.1147 285.317 39.635 284.819 39.0921C284.347 38.5773 284.083 37.9577 284.083 37.1392C284.083 36.3227 284.348 35.707 284.82 35.1961C285.32 34.6564 286.104 34.1807 287.206 33.7958C289.426 33.0204 292.575 32.735 296.133 32.735ZM296.133 10.8333C300.33 10.8333 303.685 14.1878 303.685 18.3797C303.685 22.5719 300.33 25.9277 296.133 25.9277C291.939 25.9277 288.582 22.5717 288.582 18.3797C288.582 14.188 291.938 10.8333 296.133 10.8333Z" fill="#BFA1FF" stroke="black" stroke-width="2.5"/>
<circle cx="153.693" cy="21.7917" r="2.07988" fill="#1F1F21"/>
<path d="M144.148 37.4379L144.233 18.9297C144.245 16.1683 146.494 13.9399 149.255 13.9525L186.778 14.1235C189.54 14.1361 191.768 16.3848 191.756 19.1462L191.671 37.6544C191.659 40.4158 189.41 42.6442 186.648 42.6316L149.126 42.4606C146.364 42.4481 144.136 40.1993 144.148 37.4379Z" stroke="black" stroke-width="2.5"/>
<circle cx="167.836" cy="28.3828" r="7.48548" stroke="black" stroke-width="2.5"/>
<path d="M155.773 13.8237L160.66 9.32228C161.583 8.472 162.792 8 164.048 8H170.793C172.048 8 173.257 8.472 174.18 9.32227L179.068 13.8237" stroke="black" stroke-width="2.5"/>
<path d="M31.1522 38V15.8261C31.1522 13.0647 33.3908 10.8261 36.1522 10.8261H47.8696C50.631 10.8261 52.8696 13.0647 52.8696 15.8261V38C52.8696 40.7614 50.631 43 47.8696 43H36.1522C33.3908 43 31.1522 40.7614 31.1522 38Z" stroke="black" stroke-width="2.5"/>
<path d="M36.7827 33.1739V11C36.7827 8.23858 39.0213 6 41.7827 6H53.5001C56.2615 6 58.5001 8.23858 58.5001 11V33.1739C58.5001 35.9353 56.2615 38.1739 53.5001 38.1739H41.7827C39.0213 38.1739 36.7827 35.9353 36.7827 33.1739Z" stroke="black" stroke-width="2.5"/>
<path d="M0.5 12C0.5 5.64873 5.64873 0.5 12 0.5H84C90.3513 0.5 95.5 5.64873 95.5 12V36C95.5 42.3513 90.3513 47.5 84 47.5H12C5.64873 47.5 0.5 42.3513 0.5 36V12Z" fill="black" stroke="black"/>
<path d="M34.6522 37V14.8261C34.6522 12.0647 36.8908 9.82609 39.6522 9.82609H51.3696C54.131 9.82609 56.3696 12.0647 56.3696 14.8261V37C56.3696 39.7614 54.131 42 51.3696 42H39.6522C36.8908 42 34.6522 39.7614 34.6522 37Z" stroke="#BFA1FF" stroke-width="2.5"/>
<path d="M40.2827 32.1739V10C40.2827 7.23858 42.5213 5 45.2827 5H57.0001C59.7615 5 62.0001 7.23858 62.0001 10V32.1739C62.0001 34.9353 59.7615 37.1739 57.0001 37.1739H45.2827C42.5213 37.1739 40.2827 34.9353 40.2827 32.1739Z" stroke="#BFA1FF" stroke-width="2.5"/>
</svg>
