<svg width="27" height="27" viewBox="0 0 27 27" fill="none" xmlns="http://www.w3.org/2000/svg">
<rect x="1.46558" y="1.46601" width="25.2092" height="25.2092" rx="4.87197" fill="#1F1F21" stroke="#1F1F21" stroke-width="0.649596"/>
<rect x="0.324798" y="0.324798" width="25.2092" height="25.2092" rx="4.87197" fill="#FFD4B5" stroke="#1F1F21" stroke-width="0.649596"/>
<path d="M14.6175 9.54556C13.9292 9.54556 13.3132 9.8802 12.9291 10.3936C12.545 9.8802 11.929 9.54556 11.2407 9.54556C10.0732 9.54556 9.12636 10.4963 9.12636 11.6713C9.12636 12.1238 9.19861 12.5421 9.3241 12.93C9.92494 14.8314 11.7769 15.9684 12.6934 16.2803C12.8226 16.3259 13.0356 16.3259 13.1649 16.2803C14.0814 15.9684 15.9333 14.8314 16.5341 12.93C16.6596 12.5421 16.7319 12.1238 16.7319 11.6713C16.7319 10.4963 15.785 9.54556 14.6175 9.54556Z" fill="#EE05AD"/>
</svg>
