<svg width="27" height="27" viewBox="0 0 27 27" fill="none" xmlns="http://www.w3.org/2000/svg">
<rect x="1.46558" y="1.46601" width="25.2092" height="25.2092" rx="4.87197" fill="#1F1F21" stroke="#1F1F21" stroke-width="0.649596"/>
<rect x="0.324798" y="0.324798" width="25.2092" height="25.2092" rx="4.87197" fill="#D5FE92" stroke="#1F1F21" stroke-width="0.649596"/>
<path d="M14.6177 9.54556C13.9294 9.54556 13.3133 9.8802 12.9292 10.3936C12.5452 9.8802 11.9291 9.54556 11.2408 9.54556C10.0734 9.54556 9.12648 10.4963 9.12648 11.6713C9.12648 12.1238 9.19873 12.5421 9.32423 12.93C9.92506 14.8314 11.777 15.9684 12.6935 16.2803C12.8228 16.3259 13.0357 16.3259 13.165 16.2803C14.0815 15.9684 15.9334 14.8314 16.5343 12.93C16.6598 12.5421 16.732 12.1238 16.732 11.6713C16.732 10.4963 15.7851 9.54556 14.6177 9.54556Z" fill="#EE05AD"/>
</svg>
