<svg width="11" height="11" viewBox="0 0 11 11" fill="none" xmlns="http://www.w3.org/2000/svg">
<path d="M9.45082 3.8729C8.96957 1.7554 7.12248 0.802068 5.49998 0.802068C5.49998 0.802068 5.49998 0.802068 5.4954 0.802068C3.87749 0.802068 2.02582 1.75082 1.54457 3.86832C1.00832 6.23331 2.45665 8.23623 3.76749 9.49664C4.25332 9.96414 4.87665 10.1979 5.49998 10.1979C6.12332 10.1979 6.74665 9.96414 7.2279 9.49664C8.53873 8.23623 9.98706 6.2379 9.45082 3.8729ZM5.49998 6.16915C4.70249 6.16915 4.05624 5.5229 4.05624 4.7254C4.05624 3.9279 4.70249 3.28165 5.49998 3.28165C6.29748 3.28165 6.94373 3.9279 6.94373 4.7254C6.94373 5.5229 6.29748 6.16915 5.49998 6.16915Z" fill="#1F1F21"/>
</svg>
