<svg width="80" height="80" viewBox="0 0 80 80" fill="none" xmlns="http://www.w3.org/2000/svg">
<rect x="4.03714" y="4.03742" width="75.3058" height="75.3058" rx="9.85148" fill="#1F1F21" stroke="#1F1F21" stroke-width="1.31353"/>
<rect x="0.656765" y="0.656765" width="75.3058" height="75.3058" rx="9.85148" fill="#F8F6E9" stroke="#1F1F21" stroke-width="1.31353"/>
<path d="M44.1649 31.1175C42.1255 31.1175 40.3001 32.109 39.1621 33.6301C38.0241 32.109 36.1987 31.1175 34.1593 31.1175C30.7002 31.1175 27.8946 33.9344 27.8946 37.416C27.8946 38.7569 28.1086 39.9963 28.4805 41.1456C30.2607 46.7794 35.748 50.1484 38.4635 51.0723C38.8466 51.2075 39.4776 51.2075 39.8607 51.0723C42.5762 50.1484 48.0635 46.7794 49.8437 41.1456C50.2156 39.9963 50.4297 38.7569 50.4297 37.416C50.4297 33.9344 47.624 31.1175 44.1649 31.1175Z" fill="#787885"/>
</svg>
